<?xml version="1.0" encoding="UTF-8"?>
<svg id="Layer_2" data-name="Layer 2" xmlns="http://www.w3.org/2000/svg" viewBox="0 0 1100.68 401.46">
  <defs>
    <style>
      .cls-1 {
        fill: #071404;
      }

      .cls-2 {
        fill: #f7f9ef;
      }
    </style>
  </defs>
  <g id="Plano_de_Fundo" data-name="Plano de Fundo">
    <g>
      <g>
        <path class="cls-1" d="M391.08,179.25l-10.86-5.35-21.66,6.74c-1.75.55-2.49,2.63-1.46,4.15l16.09,23.85c1.18,1.74,3.72,1.82,4.99.14,3.69-4.86,10.52-14.1,15.16-21.97,1.59-2.7.55-6.18-2.26-7.56Z"/>
        <path class="cls-1" d="M297.27,119.54l-22.74-22.39-13.35-4.02c-1.34-.4-2.79-.13-3.9.73l-5.54,4.33s-.01.01-.02.01l-.91.71c-.82.65-.97,1.84-.33,2.66l.72.93,6.36,8.14c1.25,1.45.87,3.8-1.04,4.64l-25.3,12.7c-.7.35-1.25.93-1.58,1.63l-7.83,17.08c-1.27,2.78-1.9,5.8-1.82,8.86l.55,22.91c.02.85-.46,1.63-1.23,2l-42.02,19.74-1.11.52-.44,1.14-7.9,20.31c-.85,2.18-.09,4.65,1.83,5.98l45.32,31.36c.42.29.77.69,1,1.15l12.43,24.78c1.03,2.04-.46,4.45-2.75,4.45l-222.58.07C1.37,289.98,0,288.6,0,286.91l.02-42.71c0-9.65,2.85-19.08,8.18-27.12L96.9,83.31c5.82-8.78,14.32-15.46,24.22-19.05l24.82-8.99L218.5,0h11.06l-20.12,53.2,57.62-35.93h11.06l-27.14,56.41,14.51,7.16,31.79,38.7Z"/>
        <path class="cls-1" d="M275.77,136.86c-.32,4.59-4.3,8.21-8.91,8.13-.81-.02-1.6-.15-2.35-.37l-1.64-.68c-.27-.15-5.41-3.48-8.84-5.71-1.43-.93-1.43-3.03,0-3.96l7.7-4.98c.37-.29,2.78-1.42,2.78-1.42.8-.25,1.65-.37,2.53-.37,5.04,0,9.09,4.27,8.73,9.39Z"/>
        <polygon class="cls-1" points="209.44 53.2 209.45 53.21 145.95 55.28 218.5 0 229.56 0 209.44 53.2"/>
        <rect class="cls-2" y="337.61" width="133.05" height="30.28" rx="3.07" ry="3.07"/>
        <rect class="cls-2" y="298.65" width="230.63" height="30.28" rx="3.07" ry="3.07"/>
        <rect class="cls-2" y="376.58" width="71.4" height="24.88" rx="3.07" ry="3.07"/>
        <polygon class="cls-1" points="278.12 17.27 250.98 73.69 209.45 53.21 209.44 53.2 267.06 17.27 278.12 17.27"/>
      </g>
      <path class="cls-1" d="M827.65,81.06v99.99c6.36-8.33,13.81-14.14,22.37-17.43,8.55-3.29,17.32-4.93,26.31-4.93,10.74,0,20.01,1.87,27.79,5.59,7.78,3.73,14.14,8.88,19.08,15.46,4.93,6.58,8.55,14.2,10.85,22.86,2.3,8.67,3.45,17.93,3.45,27.79v90.78h-35.19v-86.18c0-13.37-2.69-24.18-8.06-32.4-5.38-8.22-13.98-12.33-25.82-12.33-6.8,0-12.78,1.43-17.93,4.28-5.15,2.85-9.43,6.63-12.83,11.35-3.4,4.72-5.92,10.25-7.57,16.61-1.64,6.36-2.47,13.05-2.47,20.07v78.61h-35.19V81.06h35.19Z"/>
      <path class="cls-1" d="M460.94,81.06h36.84v109.2l78.28-109.2h43.75l-85.85,115.45,84.53,124.66h-43.75l-76.97-114.79v114.79h-36.84V81.06Z"/>
      <path class="cls-1" d="M684.87,324.78c-10.75,0-20.94-2.09-30.59-6.25-9.65-4.16-17.98-9.92-25-17.27-7.02-7.34-12.61-16.06-16.78-26.15-4.17-10.08-6.25-20.94-6.25-32.56s2.08-22.47,6.25-32.56c4.16-10.08,9.76-18.86,16.78-26.31,7.01-7.45,15.24-13.32,24.67-17.6,9.43-4.28,19.51-6.41,30.26-6.41,9.65,0,19.13,1.7,28.45,5.1,9.32,3.4,17.81,9.16,25.49,17.27v-19.73h35.85v158.87h-35.52v-21.05c-6.8,8.34-14.91,14.53-24.34,18.58-9.43,4.06-19.19,6.08-29.27,6.08ZM641.13,241.9c0,7.02,1.15,13.71,3.45,20.06,2.3,6.36,5.59,11.9,9.87,16.61,4.28,4.72,9.42,8.44,15.46,11.18,6.03,2.74,12.77,4.11,20.23,4.11s14.14-1.37,20.06-4.11c5.92-2.74,10.96-6.47,15.13-11.18,4.16-4.71,7.4-10.25,9.7-16.61,2.3-6.36,3.45-13.04,3.45-20.06s-1.1-13.65-3.29-19.9c-2.19-6.25-5.38-11.68-9.54-16.28-4.17-4.6-9.27-8.27-15.29-11.02-6.03-2.74-12.78-4.11-20.23-4.11s-14.2,1.37-20.23,4.11c-6.03,2.74-11.18,6.41-15.46,11.02-4.28,4.6-7.57,10.03-9.87,16.28-2.3,6.25-3.45,12.88-3.45,19.9Z"/>
      <path class="cls-1" d="M1065.49,321.17v-18.75c-6.36,8.34-13.76,14.14-22.2,17.43-8.44,3.29-17.16,4.93-26.15,4.93-10.75,0-20.01-1.86-27.79-5.59-7.79-3.73-14.14-8.88-19.08-15.46-4.93-6.58-8.55-14.2-10.85-22.86-2.3-8.66-3.45-17.93-3.45-27.79v-90.78h35.19v85.85c0,13.38,2.68,24.12,8.06,32.23,5.37,8.12,13.98,12.17,25.82,12.17,6.79,0,12.71-1.42,17.76-4.28,5.04-2.85,9.26-6.63,12.66-11.35,3.4-4.71,5.92-10.25,7.57-16.61,1.64-6.36,2.47-12.94,2.47-19.73v-78.28h35.19v158.87h-35.19Z"/>
    </g>
  </g>
</svg>